# xmcd CD database file
#
# Track frame offsets:
#	150
#	26317
#	49367
#	73052
#	106340
#	134182
#	155297
#	177582
#	204702
#	239755
#	280462
#
# Disc length: 3858 seconds
#
# Revision: 0
# Processed by: cddbd v1.4PL0 Copyright (c) Steve Scherf et al.
# Submitted via: CDex 1.50Beta7
#
DISCID=af0f100b
DTITLE=Scetches - Don't Ask Just Play
DYEAR=1996
DGENRE=Jazz
TTITLE0=Just Play
TTITLE1=Don't Ask
TTITLE2=Woman Wild
TTITLE3=Bluestrack
TTITLE4=Dawn
TTITLE5=Durchfall
TTITLE6=Don't Walk Away
TTITLE7=Twyleid
TTITLE8=Thitehouse Groove
TTITLE9=Tajmahal/Let's Try
TTITLE10=Nagel Im Auge
EXTD=YEAR: 1996
EXTT0=
EXTT1=
EXTT2=
EXTT3=
EXTT4=
EXTT5=
EXTT6=
EXTT7=
EXTT8=
EXTT9=
EXTT10=
PLAYORDER=
